<svg width="27" height="27" viewBox="0 0 27 27" fill="none" xmlns="http://www.w3.org/2000/svg">
<path fill-rule="evenodd" clip-rule="evenodd" d="M27 13.5C27 12.5275 26.4151 11.7391 25.6935 11.7391H1.30645C0.584917 11.7391 0 12.5275 0 13.5C0 14.4725 0.584917 15.2609 1.30645 15.2609H25.6935C26.4151 15.2609 27 14.4725 27 13.5Z" fill="#F4F5F6"/>
<path fill-rule="evenodd" clip-rule="evenodd" d="M27 1.76087C27 0.788368 26.4151 0 25.6935 0H1.30645C0.584917 0 0 0.788368 0 1.76087C0 2.73337 0.584917 3.52174 1.30645 3.52174H25.6935C26.4151 3.52174 27 2.73337 27 1.76087Z" fill="#F4F5F6"/>
<path fill-rule="evenodd" clip-rule="evenodd" d="M27 25.2391C27 24.2666 26.4151 23.4783 25.6935 23.4783H1.30645C0.584917 23.4783 0 24.2666 0 25.2391C0 26.2116 0.584917 27 1.30645 27H25.6935C26.4151 27 27 26.2116 27 25.2391Z" fill="#F4F5F6"/>
</svg>
