<svg width="22" height="22" viewBox="0 0 22 22" fill="none" xmlns="http://www.w3.org/2000/svg">
<path fill-rule="evenodd" clip-rule="evenodd" d="M15.8492 0.276156C15.6617 0.0993365 15.4073 0 15.1421 0C14.8769 0 14.6226 0.0993365 14.435 0.276156L2.17851 11.8323C2.05287 11.9508 1.96298 12.0986 1.91807 12.2607L0.584742 17.0736C0.495022 17.3975 0.59414 17.7419 0.845174 17.9786C1.09621 18.2153 1.46152 18.3087 1.805 18.2241L6.90957 16.967C7.08148 16.9247 7.23832 16.8399 7.36396 16.7214L19.6205 5.16529C20.011 4.79709 20.011 4.2001 19.6205 3.83189L15.8492 0.276156ZM3.78458 12.9848L15.1421 2.27626L17.4992 4.49859L6.1416 15.2071L2.95125 15.9929L3.78458 12.9848Z" fill="white" fill-opacity="0.5"/>
<path d="M1 20.1143C0.447715 20.1143 0 20.5364 0 21.0571C0 21.5779 0.447715 22 1 22H21C21.5523 22 22 21.5779 22 21.0571C22 20.5364 21.5523 20.1143 21 20.1143H1Z" fill="white" fill-opacity="0.5"/>
</svg>
