<svg width="40" height="40" viewBox="0 0 40 40" fill="none" xmlns="http://www.w3.org/2000/svg">
<path fill-rule="evenodd" clip-rule="evenodd" d="M16.7432 0C14.7467 0 13.0814 1.35138 12.9071 3.11289C12.5426 6.79582 12.4503 10.4952 12.6306 14.1873C12.413 14.2002 12.1954 14.2137 11.9778 14.2277L8.13393 14.4759C5.67703 14.6345 4.3036 17.0609 5.63001 18.8995C8.45885 22.8207 12.1039 26.2296 16.3708 28.9444L17.9108 29.9242C19.1594 30.7186 20.8411 30.7186 22.0896 29.9242L23.6296 28.9444C27.8965 26.2296 31.5416 22.8207 34.3704 18.8995C35.6968 17.0609 34.3234 14.6345 31.8665 14.4759L28.0226 14.2277C27.805 14.2137 27.5874 14.2002 27.3698 14.1873C27.5501 10.4952 27.4578 6.79581 27.0933 3.11287C26.919 1.35138 25.2537 0 23.2573 0H16.7432ZM16.5976 15.6908C16.3041 11.6057 16.3589 7.50668 16.7616 3.42857H23.2388C23.6415 7.50668 23.6963 11.6057 23.4028 15.6908C23.3699 16.1488 23.5457 16.5993 23.8908 16.9416C24.236 17.2839 24.7217 17.4893 25.2392 17.5119C26.0736 17.5483 26.9076 17.5934 27.7412 17.6472L30.5328 17.8274C28.0566 21.0578 24.956 23.879 21.3712 26.1598L20.0002 27.0321L18.6292 26.1598C15.0444 23.879 11.9438 21.0578 9.46761 17.8274L12.2592 17.6472C13.0928 17.5934 13.9268 17.5483 14.7613 17.5119C15.2788 17.4893 15.7644 17.2839 16.1096 16.9416C16.4547 16.5993 16.6305 16.1488 16.5976 15.6908Z" fill="white" fill-opacity="0.5"/>
<path d="M3.87097 31.4286C3.87097 30.4818 3.00442 29.7143 1.93548 29.7143C0.866546 29.7143 0 30.4818 0 31.4286V36C0 38.2091 2.02194 40 4.51613 40H35.4839C37.9781 40 40 38.2091 40 36V31.4286C40 30.4818 39.1335 29.7143 38.0645 29.7143C36.9956 29.7143 36.129 30.4818 36.129 31.4286V36C36.129 36.3156 35.8402 36.5714 35.4839 36.5714H4.51613C4.15982 36.5714 3.87097 36.3156 3.87097 36V31.4286Z" fill="white" fill-opacity="0.5"/>
</svg>
