<svg width="40" height="40" viewBox="0 0 40 40" fill="none" xmlns="http://www.w3.org/2000/svg">
<path fill-rule="evenodd" clip-rule="evenodd" d="M25.2042 27.6426C19.1115 32.5224 10.193 32.1383 4.54503 26.4904C-1.51501 20.4303 -1.51501 10.6051 4.54503 4.54503C10.6051 -1.51501 20.4303 -1.51501 26.4904 4.54503C32.1383 10.193 32.5224 19.1115 27.6426 25.2042L39.495 37.0566C40.1683 37.73 40.1683 38.8217 39.495 39.495C38.8217 40.1683 37.73 40.1683 37.0566 39.495L25.2042 27.6426ZM6.9834 24.052C2.27004 19.3387 2.27004 11.6968 6.9834 6.98341C11.6968 2.27004 19.3386 2.27004 24.052 6.98341C28.7619 11.6933 28.7654 19.3274 24.0624 24.0416C24.0589 24.0451 24.0554 24.0485 24.052 24.052C24.0485 24.0554 24.0451 24.0589 24.0416 24.0624C19.3274 28.7654 11.6933 28.7619 6.9834 24.052Z" fill="#1B222C"/>
</svg>
