<svg width="51" height="46" viewBox="0 0 51 46" fill="none" xmlns="http://www.w3.org/2000/svg">
<path fill-rule="evenodd" clip-rule="evenodd" d="M31.2803 5.28033C30.9874 5.57322 30.5126 5.57322 30.2197 5.28033L26.75 1.81066L23.2803 5.28033C22.9874 5.57322 22.5126 5.57322 22.2197 5.28033C21.9268 4.98744 21.9268 4.51256 22.2197 4.21967L26.2197 0.21967C26.5126 -0.0732233 26.9874 -0.0732233 27.2803 0.21967L31.2803 4.21967C31.5732 4.51256 31.5732 4.98744 31.2803 5.28033Z" fill="#141945"/>
<path fill-rule="evenodd" clip-rule="evenodd" d="M22.2197 40.2197C22.5126 39.9268 22.9874 39.9268 23.2803 40.2197L26.75 43.6893L30.2197 40.2197C30.5126 39.9268 30.9874 39.9268 31.2803 40.2197C31.5732 40.5126 31.5732 40.9874 31.2803 41.2803L27.2803 45.2803C26.9874 45.5732 26.5126 45.5732 26.2197 45.2803L22.2197 41.2803C21.9268 40.9874 21.9268 40.5126 22.2197 40.2197Z" fill="#141945"/>
<path d="M4.24432 36H0.920455L10.5341 9.81818H13.8068L23.4205 36H20.0966L12.2727 13.9602H12.0682L4.24432 36ZM5.47159 25.7727H18.8693V28.5852H5.47159V25.7727ZM30.2293 36V33.6989L44.3429 12.6307H30.0759V9.81818H48.127V12.1193L34.0134 33.1875H48.2804V36H30.2293Z" fill="#1B222C"/>
</svg>
