<svg width="374" height="120" viewBox="0 0 374 120" fill="none" xmlns="http://www.w3.org/2000/svg">
<rect width="120" height="120" rx="24" fill="#1B222C"/>
<path d="M62.3709 44.1037L60.4746 45.7328L63.7328 49.5254L65.6291 47.8963L62.3709 44.1037ZM60.2695 58.7128L62.71 58.1705L60.2695 58.7128ZM66.1517 67.0323L67.4767 64.9123L66.1517 67.0323ZM85.0011 48.5022L87.2372 47.3841L85.0011 48.5022ZM64.7954 45.2914L66.4917 47.1278L64.7954 45.2914ZM88.9861 58.5318L89.0513 58.1074L84.1095 57.3471L84.0442 57.7715L88.9861 58.5318ZM64.8267 69.1523L65.1114 69.3302L67.7614 65.0903L67.4767 64.9123L64.8267 69.1523ZM77.6848 40.2199L76.4413 39.9938L75.5469 44.9131L76.7904 45.1392L77.6848 40.2199ZM63.0992 43.4549C62.895 43.6435 62.6651 43.8509 62.3709 44.1037L65.6291 47.8963C65.9764 47.5979 66.2515 47.3497 66.4917 47.1278L63.0992 43.4549ZM88.8419 51.764L88.7857 51.5111L83.9047 52.5957L83.9609 52.8487L88.8419 51.764ZM87.5244 47.9587L87.2372 47.3841L82.765 49.6202L83.0523 50.1947L87.5244 47.9587ZM57.5595 58.0423L57.8291 59.2552L62.71 58.1705L62.4405 56.9577L57.5595 58.0423ZM57.8291 59.2552C58.3992 61.821 59.6051 64.2024 61.336 66.1804L65.0988 62.8879C63.9198 61.5405 63.0984 59.9183 62.71 58.1705L57.8291 59.2552ZM88.7857 51.5111C88.5121 50.2798 88.0885 49.0868 87.5244 47.9587L83.0523 50.1947C83.4335 50.9572 83.7198 51.7636 83.9047 52.5957L88.7857 51.5111ZM81.78 41.6845C80.5042 40.9757 79.1208 40.481 77.6848 40.2199L76.7904 45.1392C77.6885 45.3025 78.5538 45.612 79.3518 46.0553L81.78 41.6845ZM65.1114 69.3302C66.7318 70.343 68.5222 71.054 70.396 71.4287L71.3765 66.5258C70.0947 66.2694 68.8699 65.7831 67.7614 65.0903L65.1114 69.3302ZM76.6252 71.4245C78.4698 71.0555 80.2591 70.3487 81.8587 69.3489L79.2087 65.1089C78.1254 65.786 76.9025 66.27 75.6447 66.5216L76.6252 71.4245ZM85.8935 65.709C87.519 63.6191 88.5835 61.1486 88.9861 58.5318L84.0442 57.7715C83.7712 59.5463 83.0492 61.2219 81.9468 62.6393L85.8935 65.709ZM67.4767 64.9123C66.5892 64.3576 65.788 63.6755 65.0988 62.8879L61.336 66.1804C62.3477 67.3367 63.5238 68.338 64.8267 69.1523L67.4767 64.9123ZM79.3518 46.0553C80.8227 46.8725 82.0125 48.1151 82.765 49.6202L87.2372 47.3841C86.034 44.9778 84.1318 42.9911 81.78 41.6845L79.3518 46.0553ZM76.4413 39.9938C74.5074 39.6422 72.5273 39.6276 70.5885 39.9508L71.4105 44.8827C72.7807 44.6544 74.1802 44.6646 75.5469 44.9131L76.4413 39.9938ZM89.0513 58.1074C89.3758 55.9983 89.3048 53.8472 88.8419 51.764L83.9609 52.8487C84.2892 54.3259 84.3396 55.8514 84.1095 57.3471L89.0513 58.1074ZM81.9468 62.6393C81.1881 63.6147 80.2584 64.4529 79.2087 65.1089L81.8587 69.3489C83.4042 68.383 84.7733 67.1492 85.8935 65.709L81.9468 62.6393ZM70.5885 39.9508C67.9242 40.3948 65.2468 41.4712 63.0992 43.4549L66.4917 47.1278C67.7688 45.9483 69.4762 45.2051 71.4105 44.8827L70.5885 39.9508ZM75.6447 66.5216C74.2389 66.8027 72.7743 66.8054 71.3765 66.5258L70.396 71.4287C72.449 71.8393 74.5802 71.8335 76.6252 71.4245L75.6447 66.5216Z" fill="white"/>
<path d="M57.5 80C57.5 81.3807 58.6193 82.5 60 82.5C61.3807 82.5 62.5 81.3807 62.5 80H57.5ZM55.7403 68.1706L57.911 66.9303L55.4303 62.589L53.2597 63.8294L55.7403 68.1706ZM52.7146 67.0203L51.4742 64.8496L52.7146 67.0203ZM53.8483 43.9677L52.5233 46.0877L53.8483 43.9677ZM56.7826 46.4658L54.9012 48.1121L56.7826 46.4658ZM43.9078 68.5287L43.4606 70.9884L43.9078 68.5287ZM34.9989 62.4978L32.7628 63.6159L34.9989 62.4978ZM42.7624 68.3204L43.2096 65.8608L42.7624 68.3204ZM62.5 80V54.8856H57.5V80H62.5ZM31.0139 52.4682L30.9487 52.8926L35.8905 53.6529L35.9558 53.2285L31.0139 52.4682ZM55.1733 41.8477L54.8886 41.6698L52.2386 45.9097L52.5233 46.0877L55.1733 41.8477ZM42.3152 70.7801L43.4606 70.9884L44.355 66.069L43.2096 65.8608L42.3152 70.7801ZM53.9549 69.1909C54.5514 68.85 55.2047 68.4767 55.7403 68.1706L53.2597 63.8294C52.724 64.1355 52.0707 64.5088 51.4742 64.8496L53.9549 69.1909ZM31.1581 59.236L31.2143 59.4889L36.0953 58.4043L36.0391 58.1513L31.1581 59.236ZM32.4756 63.0413L32.7628 63.6159L37.235 61.3798L36.9477 60.8053L32.4756 63.0413ZM58.7583 44.9273L58.664 44.8196L54.9012 48.1121L54.9954 48.2198L58.7583 44.9273ZM62.1399 51.6051C61.5901 49.1309 60.4273 46.8347 58.7583 44.9273L54.9954 48.2198C56.1126 49.4966 56.8909 51.0336 57.259 52.6897L62.1399 51.6051ZM31.2143 59.4889C31.4879 60.7202 31.9115 61.9132 32.4756 63.0413L36.9477 60.8053C36.5665 60.0428 36.2802 59.2364 36.0953 58.4043L31.2143 59.4889ZM49.6143 70.8689C51.1372 70.5305 52.6003 69.9649 53.9549 69.1909L51.4742 64.8496C50.5553 65.3747 49.5629 65.7584 48.5297 65.988L49.6143 70.8689ZM54.8886 41.6698C53.2682 40.657 51.4778 39.946 49.604 39.5713L48.6235 44.4742C49.9053 44.7306 51.1301 45.2169 52.2386 45.9097L54.8886 41.6698ZM43.3748 39.5755C41.5302 39.9445 39.7409 40.6513 38.1413 41.6511L40.7913 45.8911C41.8746 45.214 43.0975 44.73 44.3553 44.4784L43.3748 39.5755ZM34.1065 45.291C32.481 47.3809 31.4165 49.8514 31.0139 52.4682L35.9558 53.2285C36.2288 51.4537 36.9508 49.7781 38.0532 48.3607L34.1065 45.291ZM52.5233 46.0877C53.4108 46.6424 54.212 47.3245 54.9012 48.1121L58.664 44.8196C57.6523 43.6633 56.4762 42.662 55.1733 41.8477L52.5233 46.0877ZM38.0532 48.3607C38.8119 47.3853 39.7416 46.5471 40.7913 45.8911L38.1413 41.6511C36.5958 42.617 35.2267 43.8508 34.1065 45.291L38.0532 48.3607ZM43.4606 70.9884C45.4993 71.359 47.5915 71.3184 49.6143 70.8689L48.5297 65.988C47.1574 66.2929 45.738 66.3205 44.355 66.069L43.4606 70.9884ZM30.9487 52.8926C30.6242 55.0017 30.6952 57.1528 31.1581 59.236L36.0391 58.1513C35.7108 56.6741 35.6604 55.1486 35.8905 53.6529L30.9487 52.8926ZM44.3553 44.4784C45.7611 44.1973 47.2257 44.1946 48.6235 44.4742L49.604 39.5713C47.551 39.1607 45.4198 39.1665 43.3748 39.5755L44.3553 44.4784ZM40.6482 64.9447C39.1773 64.1275 37.9875 62.8849 37.235 61.3798L32.7628 63.6159C33.966 66.0222 35.8682 68.0089 38.22 69.3155L40.6482 64.9447ZM38.22 69.3155C39.4958 70.0243 40.8792 70.519 42.3152 70.7801L43.2096 65.8608C42.3115 65.6975 41.4462 65.388 40.6482 64.9447L38.22 69.3155ZM62.5 54.8856C62.5 53.7822 62.3792 52.6822 62.1399 51.6051L57.259 52.6897C57.4192 53.4107 57.5 54.147 57.5 54.8856H62.5Z" fill="white"/>
<path d="M59 44.5L60.6364 44L65 51L63.3636 52L59 44.5Z" fill="#1B222C"/>
<rect x="55.5" y="62" width="2" height="8" fill="#1B222C"/>
<path d="M119.909 64.0909H124.545L128.432 69.2045L129.455 70.5682L135.25 78.2727H130.614L126.795 73.1591L125.841 71.8636L119.909 64.0909ZM136.682 57.5455C136.682 61.2273 136.017 64.4091 134.688 67.0909C133.358 69.7727 131.534 71.8409 129.216 73.2955C126.898 74.75 124.25 75.4773 121.273 75.4773C118.295 75.4773 115.648 74.75 113.33 73.2955C111.011 71.8409 109.188 69.7727 107.858 67.0909C106.528 64.4091 105.864 61.2273 105.864 57.5455C105.864 53.8636 106.528 50.6818 107.858 48C109.188 45.3182 111.011 43.25 113.33 41.7955C115.648 40.3409 118.295 39.6136 121.273 39.6136C124.25 39.6136 126.898 40.3409 129.216 41.7955C131.534 43.25 133.358 45.3182 134.688 48C136.017 50.6818 136.682 53.8636 136.682 57.5455ZM132.591 57.5455C132.591 54.5227 132.085 51.9716 131.074 49.892C130.074 47.8125 128.716 46.2386 127 45.1705C125.295 44.1023 123.386 43.5682 121.273 43.5682C119.159 43.5682 117.244 44.1023 115.528 45.1705C113.824 46.2386 112.466 47.8125 111.455 49.892C110.455 51.9716 109.955 54.5227 109.955 57.5455C109.955 60.5682 110.455 63.1193 111.455 65.1989C112.466 67.2784 113.824 68.8523 115.528 69.9205C117.244 70.9886 119.159 71.5227 121.273 71.5227C123.386 71.5227 125.295 70.9886 127 69.9205C128.716 68.8523 130.074 67.2784 131.074 65.1989C132.085 63.1193 132.591 60.5682 132.591 57.5455ZM159.744 64.2955V48.8182H163.767V75H159.744V70.5682H159.472C158.858 71.8977 157.903 73.0284 156.608 73.9602C155.313 74.8807 153.676 75.3409 151.699 75.3409C150.062 75.3409 148.608 74.983 147.335 74.267C146.063 73.5398 145.063 72.4489 144.335 70.9943C143.608 69.5284 143.244 67.6818 143.244 65.4545V48.8182H147.267V65.1818C147.267 67.0909 147.801 68.6136 148.869 69.75C149.949 70.8864 151.324 71.4545 152.994 71.4545C153.994 71.4545 155.011 71.1989 156.045 70.6875C157.091 70.1761 157.966 69.392 158.67 68.3352C159.386 67.2784 159.744 65.9318 159.744 64.2955ZM171.135 75V48.8182H175.158V75H171.135ZM173.18 44.4545C172.396 44.4545 171.72 44.1875 171.152 43.6534C170.595 43.1193 170.317 42.4773 170.317 41.7273C170.317 40.9773 170.595 40.3352 171.152 39.8011C171.72 39.267 172.396 39 173.18 39C173.964 39 174.635 39.267 175.192 39.8011C175.76 40.3352 176.044 40.9773 176.044 41.7273C176.044 42.4773 175.76 43.1193 175.192 43.6534C174.635 44.1875 173.964 44.4545 173.18 44.4545ZM181.776 75V71.9318L196.639 52.8409V52.5682H182.253V48.8182H201.821V52.0227L187.366 70.9773V71.25H202.298V75H181.776Z" fill="#098842"/>
<path d="M209.04 75V40.0909H220.835C223.574 40.0909 225.813 40.5852 227.551 41.5739C229.301 42.5511 230.597 43.875 231.438 45.5455C232.278 47.2159 232.699 49.0795 232.699 51.1364C232.699 53.1932 232.278 55.0625 231.438 56.7443C230.608 58.4261 229.324 59.767 227.585 60.767C225.847 61.7557 223.619 62.25 220.903 62.25H212.449V58.5H220.767C222.642 58.5 224.148 58.1761 225.284 57.5284C226.42 56.8807 227.244 56.0057 227.756 54.9034C228.278 53.7898 228.54 52.5341 228.54 51.1364C228.54 49.7386 228.278 48.4886 227.756 47.3864C227.244 46.2841 226.415 45.4205 225.267 44.7955C224.119 44.1591 222.597 43.8409 220.699 43.8409H213.267V75H209.04ZM238.963 75V48.8182H242.849V52.7727H243.122C243.599 51.4773 244.463 50.4261 245.713 49.6193C246.963 48.8125 248.372 48.4091 249.94 48.4091C250.236 48.4091 250.605 48.4148 251.048 48.4261C251.491 48.4375 251.827 48.4545 252.054 48.4773V52.5682C251.918 52.5341 251.605 52.483 251.116 52.4148C250.639 52.3352 250.134 52.2955 249.599 52.2955C248.327 52.2955 247.19 52.5625 246.19 53.0966C245.202 53.6193 244.418 54.3466 243.838 55.2784C243.27 56.1989 242.986 57.25 242.986 58.4318V75H238.963ZM267.003 75.5455C264.48 75.5455 262.304 74.9886 260.474 73.875C258.656 72.75 257.253 71.1818 256.264 69.1705C255.287 67.1477 254.798 64.7955 254.798 62.1136C254.798 59.4318 255.287 57.0682 256.264 55.0227C257.253 52.9659 258.628 51.3636 260.389 50.2159C262.162 49.0568 264.23 48.4773 266.594 48.4773C267.957 48.4773 269.304 48.7045 270.634 49.1591C271.963 49.6136 273.173 50.3523 274.264 51.375C275.355 52.3864 276.224 53.7273 276.872 55.3977C277.52 57.0682 277.844 59.125 277.844 61.5682V63.2727H257.662V59.7955H273.753C273.753 58.3182 273.457 57 272.866 55.8409C272.287 54.6818 271.457 53.767 270.378 53.0966C269.31 52.4261 268.048 52.0909 266.594 52.0909C264.991 52.0909 263.605 52.4886 262.435 53.2841C261.276 54.0682 260.384 55.0909 259.759 56.3523C259.134 57.6136 258.821 58.9659 258.821 60.4091V62.7273C258.821 64.7045 259.162 66.3807 259.844 67.7557C260.537 69.1193 261.497 70.1591 262.724 70.875C263.952 71.5795 265.378 71.9318 267.003 71.9318C268.06 71.9318 269.014 71.7841 269.866 71.4886C270.73 71.1818 271.474 70.7273 272.099 70.125C272.724 69.5114 273.207 68.75 273.548 67.8409L277.435 68.9318C277.026 70.25 276.338 71.4091 275.372 72.4091C274.406 73.3977 273.213 74.1705 271.793 74.7273C270.372 75.2727 268.776 75.5455 267.003 75.5455ZM283.213 75V71.9318L298.077 52.8409V52.5682H283.69V48.8182H303.259V52.0227L288.804 70.9773V71.25H303.736V75H283.213Z" fill="white"/>
</svg>
