<svg width="40" height="40" viewBox="0 0 40 40" fill="none" xmlns="http://www.w3.org/2000/svg">
<path fill-rule="evenodd" clip-rule="evenodd" d="M16.7429 30.5632C14.7465 30.5632 13.0812 29.21 12.9068 27.446C12.5423 23.7578 12.4501 20.0532 12.6304 16.3559C12.4128 16.343 12.1952 16.3295 11.9776 16.3154L8.13362 16.0669C5.67671 15.908 4.30328 13.4781 5.6297 11.6369C8.45857 7.71021 13.6437 3.3153 17.9107 0.596632C19.1592 -0.198878 20.8409 -0.198876 22.0894 0.596632C26.3564 3.3153 31.5415 7.71021 34.3704 11.6369C35.6968 13.4781 34.3234 15.908 31.8665 16.0669L28.0225 16.3154C27.8049 16.3295 27.5873 16.343 27.3697 16.3559C27.55 20.0532 27.4578 23.7578 27.0932 27.446C26.9189 29.21 25.2536 30.5632 23.2572 30.5632H16.7429ZM16.5974 14.8502C16.3039 18.9411 16.3587 23.0459 16.7614 27.1298H23.2387C23.6414 23.0459 23.6962 18.9411 23.4027 14.8502C23.3698 14.3916 23.5456 13.9404 23.8907 13.5976C24.2359 13.2549 24.7216 13.0492 25.2391 13.0266C26.0735 12.9901 26.9075 12.9449 27.741 12.8911L30.5328 12.7106C28.0565 9.47558 24.9559 6.65044 21.3711 4.3664L20 3.49284L18.629 4.3664C15.0442 6.65044 11.9436 9.47559 9.4673 12.7106L12.2591 12.8911C13.0926 12.9449 13.9266 12.9901 14.761 13.0266C15.2785 13.0492 15.7642 13.2549 16.1093 13.5976C16.4545 13.9404 16.6303 14.3916 16.5974 14.8502Z" fill="white" fill-opacity="0.5"/>
<path d="M3.87097 31.4164C3.87097 30.4683 3.00442 29.6997 1.93548 29.6997C0.866546 29.6997 0 30.4683 0 31.4164V35.9943C0 38.2066 2.02194 40 4.51613 40H35.4839C37.9781 40 40 38.2066 40 35.9943V31.4164C40 30.4683 39.1335 29.6997 38.0645 29.6997C36.9956 29.6997 36.129 30.4683 36.129 31.4164V35.9943C36.129 36.3104 35.8402 36.5666 35.4839 36.5666H4.51613C4.15982 36.5666 3.87097 36.3104 3.87097 35.9943V31.4164Z" fill="white" fill-opacity="0.5"/>
</svg>
